<?xml version="1.0" encoding="utf-8"?>
<!-- Generator: Adobe Illustrator 15.0.2, SVG Export Plug-In . SVG Version: 6.00 Build 0)  -->
<!DOCTYPE svg PUBLIC "-//W3C//DTD SVG 1.1//EN" "http://www.w3.org/Graphics/SVG/1.1/DTD/svg11.dtd">
<svg version="1.1" id="BlackBoxes" xmlns="http://www.w3.org/2000/svg" xmlns:xlink="http://www.w3.org/1999/xlink" x="0px" y="0px"
	 width="200px" height="200px" viewBox="0 0 200 200" enable-background="new 0 0 200 200" xml:space="preserve">
<rect x="185" y="100" width="10" height="10"/>
<rect x="185" y="90" width="10" height="10"/>
<rect x="185" y="80" width="10" height="10"/>
<rect x="185" y="70" width="10" height="10"/>
<rect x="185" y="60" width="10" height="10"/>
<rect x="185" y="50" width="10" height="10"/>
<rect x="185" y="40" width="10" height="10"/>
<rect x="185" y="30" width="10" height="10"/>
<rect x="185" y="20" width="10" height="10"/>
<rect x="175" y="110" width="10" height="10"/>
<rect x="175" y="100" width="10" height="10"/>
<rect x="175" y="80" width="10" height="10"/>
<rect x="175" y="40" width="10" height="10"/>
<rect x="175" y="20" width="10" height="10"/>
<rect x="175" y="10" width="10" height="10"/>
<rect x="165" y="110" width="10" height="10"/>
<rect x="165" y="90" width="10" height="10"/>
<rect x="165" y="70" width="10" height="10"/>
<rect x="165" y="60" width="10" height="10"/>
<rect x="165" y="50" width="10" height="10"/>
<rect x="165" y="30" width="10" height="10"/>
<rect x="165" y="20" width="10" height="10"/>
<rect x="165" y="10" width="10" height="10"/>
<rect x="155" y="110" width="10" height="10"/>
<rect x="155" y="90" width="10" height="10"/>
<rect x="155" y="70" width="10" height="10"/>
<rect x="155" y="60" width="10" height="10"/>
<rect x="155" y="50" width="10" height="10"/>
<rect x="155" y="30" width="10" height="10"/>
<rect x="155" y="20" width="10" height="10"/>
<rect x="155" y="10" width="10" height="10"/>
<rect x="145" y="110" width="10" height="10"/>
<rect x="145" y="90" width="10" height="10"/>
<rect x="145" y="70" width="10" height="10"/>
<rect x="145" y="60" width="10" height="10"/>
<rect x="145" y="50" width="10" height="10"/>
<rect x="145" y="30" width="10" height="10"/>
<rect x="145" y="20" width="10" height="10"/>
<rect x="145" y="10" width="10" height="10"/>
<rect x="135" y="110" width="10" height="10"/>
<rect x="135" y="100" width="10" height="10"/>
<rect x="135" y="80" width="10" height="10"/>
<rect x="135" y="40" width="10" height="10"/>
<rect x="135" y="30" width="10" height="10"/>
<rect x="135" y="20" width="10" height="10"/>
<rect x="135" y="10" width="10" height="10"/>
<rect x="125" y="110" width="10" height="10"/>
<rect x="125" y="100" width="10" height="10"/>
<rect x="125" y="90" width="10" height="10"/>
<rect x="125" y="80" width="10" height="10"/>
<rect x="125" y="70" width="10" height="10"/>
<rect x="125" y="60" width="10" height="10"/>
<rect x="125" y="50" width="10" height="10"/>
<rect x="125" y="40" width="10" height="10"/>
<rect x="125" y="30" width="10" height="10"/>
<rect x="125" y="20" width="10" height="10"/>
<rect x="125" y="10" width="10" height="10"/>
<rect x="115" y="110" width="10" height="10"/>
<rect x="115" y="100" width="10" height="10"/>
<rect x="115" y="90" width="10" height="10"/>
<rect x="115" y="80" width="10" height="10"/>
<rect x="115" y="70" width="10" height="10"/>
<rect x="115" y="60" width="10" height="10"/>
<rect x="115" y="50" width="10" height="10"/>
<rect x="115" y="40" width="10" height="10"/>
<rect x="115" y="30" width="10" height="10"/>
<rect x="115" y="20" width="10" height="10"/>
<rect x="115" y="10" width="10" height="10"/>
<rect x="105" y="110" width="10" height="10"/>
<rect x="105" y="100" width="10" height="10"/>
<rect x="105" y="90" width="10" height="10"/>
<rect x="105" y="70" width="10" height="10"/>
<rect x="105" y="60" width="10" height="10"/>
<rect x="105" y="50" width="10" height="10"/>
<rect x="105" y="40" width="10" height="10"/>
<rect x="105" y="30" width="10" height="10"/>
<rect x="105" y="20" width="10" height="10"/>
<rect x="105" y="10" width="10" height="10"/>
<rect x="95" y="110" width="10" height="10"/>
<rect x="95" y="100" width="10" height="10"/>
<rect x="95" y="90" width="10" height="10"/>
<rect x="95" y="30" width="10" height="10"/>
<rect x="95" y="10" width="10" height="10"/>
<rect x="85" y="110" width="10" height="10"/>
<rect x="85" y="100" width="10" height="10"/>
<rect x="85" y="90" width="10" height="10"/>
<rect x="85" y="70" width="10" height="10"/>
<rect x="85" y="60" width="10" height="10"/>
<rect x="85" y="50" width="10" height="10"/>
<rect x="85" y="30" width="10" height="10"/>
<rect x="85" y="20" width="10" height="10"/>
<rect x="85" y="10" width="10" height="10"/>
<rect x="75" y="110" width="10" height="10"/>
<rect x="75" y="100" width="10" height="10"/>
<rect x="75" y="90" width="10" height="10"/>
<rect x="75" y="80" width="10" height="10"/>
<rect x="75" y="70" width="10" height="10"/>
<rect x="75" y="60" width="10" height="10"/>
<rect x="75" y="50" width="10" height="10"/>
<rect x="75" y="40" width="10" height="10"/>
<rect x="75" y="30" width="10" height="10"/>
<rect x="75" y="20" width="10" height="10"/>
<rect x="75" y="10" width="10" height="10"/>
<rect x="65" y="110" width="10" height="10"/>
<rect x="65" y="100" width="10" height="10"/>
<rect x="65" y="90" width="10" height="10"/>
<rect x="65" y="80" width="10" height="10"/>
<rect x="65" y="70" width="10" height="10"/>
<rect x="65" y="60" width="10" height="10"/>
<rect x="65" y="50" width="10" height="10"/>
<rect x="65" y="40" width="10" height="10"/>
<rect x="65" y="30" width="10" height="10"/>
<rect x="65" y="20" width="10" height="10"/>
<rect x="65" y="10" width="10" height="10"/>
<rect x="55" y="110" width="10" height="10"/>
<rect x="55" y="100" width="10" height="10"/>
<rect x="55" y="90" width="10" height="10"/>
<rect x="55" y="80" width="10" height="10"/>
<rect x="55" y="40" width="10" height="10"/>
<rect x="55" y="30" width="10" height="10"/>
<rect x="55" y="20" width="10" height="10"/>
<rect x="55" y="10" width="10" height="10"/>
<rect x="45" y="110" width="10" height="10"/>
<rect x="45" y="100" width="10" height="10"/>
<rect x="45" y="90" width="10" height="10"/>
<rect x="45" y="70" width="10" height="10"/>
<rect x="45" y="60" width="10" height="10"/>
<rect x="45" y="50" width="10" height="10"/>
<rect x="45" y="30" width="10" height="10"/>
<rect x="45" y="20" width="10" height="10"/>
<rect x="45" y="10" width="10" height="10"/>
<rect x="35" y="110" width="10" height="10"/>
<rect x="35" y="100" width="10" height="10"/>
<rect x="35" y="90" width="10" height="10"/>
<rect x="35" y="70" width="10" height="10"/>
<rect x="35" y="60" width="10" height="10"/>
<rect x="35" y="50" width="10" height="10"/>
<rect x="35" y="30" width="10" height="10"/>
<rect x="35" y="20" width="10" height="10"/>
<rect x="35" y="10" width="10" height="10"/>
<rect x="25" y="110" width="10" height="10"/>
<rect x="25" y="100" width="10" height="10"/>
<rect x="25" y="90" width="10" height="10"/>
<rect x="25" y="70" width="10" height="10"/>
<rect x="25" y="60" width="10" height="10"/>
<rect x="25" y="50" width="10" height="10"/>
<rect x="25" y="30" width="10" height="10"/>
<rect x="25" y="20" width="10" height="10"/>
<rect x="25" y="10" width="10" height="10"/>
<rect x="15" y="110" width="10" height="10"/>
<rect x="15" y="100" width="10" height="10"/>
<rect x="15" y="90" width="10" height="10"/>
<rect x="15" y="80" width="10" height="10"/>
<rect x="15" y="10" width="10" height="10"/>
<rect x="5" y="100" width="10" height="10"/>
<rect x="5" y="90" width="10" height="10"/>
<rect x="5" y="80" width="10" height="10"/>
<rect x="5" y="70" width="10" height="10"/>
<rect x="5" y="60" width="10" height="10"/>
<rect x="5" y="50" width="10" height="10"/>
<rect x="5" y="40" width="10" height="10"/>
<rect x="5" y="30" width="10" height="10"/>
<rect x="5" y="20" width="10" height="10"/>
</svg>
