<?xml version="1.0" encoding="utf-8"?>
<!-- Generator: Adobe Illustrator 15.0.2, SVG Export Plug-In . SVG Version: 6.00 Build 0)  -->
<!DOCTYPE svg PUBLIC "-//W3C//DTD SVG 1.1//EN" "http://www.w3.org/Graphics/SVG/1.1/DTD/svg11.dtd">
<svg version="1.1" id="WhiteBoxes" xmlns="http://www.w3.org/2000/svg" xmlns:xlink="http://www.w3.org/1999/xlink" x="0px" y="0px"
	 width="200px" height="200px" viewBox="0 0 200 200" enable-background="new 0 0 200 200" xml:space="preserve">
<rect x="185" y="110" fill="#FFFFFF" width="10" height="10"/>
<rect x="185" y="10" fill="#FFFFFF" width="10" height="10"/>
<rect x="175" y="90" fill="#FFFFFF" width="10" height="10"/>
<rect x="175" y="70" fill="#FFFFFF" width="10" height="10"/>
<rect x="175" y="60" fill="#FFFFFF" width="10" height="10"/>
<rect x="175" y="50" fill="#FFFFFF" width="10" height="10"/>
<rect x="175" y="30" fill="#FFFFFF" width="10" height="10"/>
<rect x="165" y="100" fill="#FFFFFF" width="10" height="10"/>
<rect x="165" y="80" fill="#FFFFFF" width="10" height="10"/>
<rect x="165" y="40" fill="#FFFFFF" width="10" height="10"/>
<rect x="155" y="100" fill="#FFFFFF" width="10" height="10"/>
<rect x="155" y="80" fill="#FFFFFF" width="10" height="10"/>
<rect x="155" y="40" fill="#FFFFFF" width="10" height="10"/>
<rect x="145" y="100" fill="#FFFFFF" width="10" height="10"/>
<rect x="145" y="80" fill="#FFFFFF" width="10" height="10"/>
<rect x="145" y="40" fill="#FFFFFF" width="10" height="10"/>
<rect x="135" y="90" fill="#FFFFFF" width="10" height="10"/>
<rect x="135" y="70" fill="#FFFFFF" width="10" height="10"/>
<rect x="135" y="60" fill="#FFFFFF" width="10" height="10"/>
<rect x="135" y="50" fill="#FFFFFF" width="10" height="10"/>
<rect x="105" y="80" fill="#FFFFFF" width="10" height="10"/>
<rect x="95" y="80" fill="#FFFFFF" width="10" height="10"/>
<rect x="95" y="70" fill="#FFFFFF" width="10" height="10"/>
<rect x="95" y="60" fill="#FFFFFF" width="10" height="10"/>
<rect x="95" y="50" fill="#FFFFFF" width="10" height="10"/>
<rect x="95" y="40" fill="#FFFFFF" width="10" height="10"/>
<rect x="95" y="20" fill="#FFFFFF" width="10" height="10"/>
<rect x="85" y="80" fill="#FFFFFF" width="10" height="10"/>
<rect x="85" y="40" fill="#FFFFFF" width="10" height="10"/>
<rect x="55" y="70" fill="#FFFFFF" width="10" height="10"/>
<rect x="55" y="60" fill="#FFFFFF" width="10" height="10"/>
<rect x="55" y="50" fill="#FFFFFF" width="10" height="10"/>
<rect x="45" y="80" fill="#FFFFFF" width="10" height="10"/>
<rect x="45" y="40" fill="#FFFFFF" width="10" height="10"/>
<rect x="35" y="80" fill="#FFFFFF" width="10" height="10"/>
<rect x="35" y="40" fill="#FFFFFF" width="10" height="10"/>
<rect x="25" y="80" fill="#FFFFFF" width="10" height="10"/>
<rect x="25" y="40" fill="#FFFFFF" width="10" height="10"/>
<rect x="15" y="70" fill="#FFFFFF" width="10" height="10"/>
<rect x="15" y="60" fill="#FFFFFF" width="10" height="10"/>
<rect x="15" y="50" fill="#FFFFFF" width="10" height="10"/>
<rect x="15" y="40" fill="#FFFFFF" width="10" height="10"/>
<rect x="15" y="30" fill="#FFFFFF" width="10" height="10"/>
<rect x="15" y="20" fill="#FFFFFF" width="10" height="10"/>
<rect x="5" y="110" fill="#FFFFFF" width="10" height="10"/>
<rect x="5" y="10" fill="#FFFFFF" width="10" height="10"/>
</svg>
